<svg xmlns="http://www.w3.org/2000/svg" viewBox="0 0 48 48" role="img" aria-label="Superbit Logo">
  <path d="M27.8 20.1c-2-1-3.7-2.4-4.9-4.2L17 32.6l7.1 3.2h.1l8.7-15.5c-.4.1-.9.1-1.3.1-1.3 0-2.6-.3-3.8-.8z" fill="#0F4C94"/>
  <path d="M35 1.2C33.9.7 32.8.5 31.8.5c-.9 0-1.8.2-2.7.5-.5.2-.9.4-1.3.7-1.3.8-2.3 2-3 3.5-1 2.2-.9 4.6.1 6.6.5 1 1.2 1.9 2.1 2.6.5.4 1.1.8 1.7 1.1.6.3 1.3.5 2 .6.5.1.9.1 1.4.1.7 0 1.4-.1 2-.3.3-.1.6-.2.9-.3.5-.2.9-.4 1.3-.7 1.3-.8 2.3-2 3-3.5 1.9-4.1.1-8.9-3.9-10.7z" fill="#0F4C94"/>
  <path d="M22.2 14.7S15.4 9.9 8.4 12.4C1.2 15 0 13.8 0 13.8s8.1 4.7 7.7 10.7c-.4 6.9 2.9 8.8 2.9 8.8s5.5-3.1 6.1-9.4c.6-6 5.6-9.3 10.5-9.2" fill="#FF1240"/>
</svg>
